<?xml version="1.0" encoding="utf-8"?>
<!-- Generator: Adobe Adobe Illustrator 24.2.0, SVG Export Plug-In . SVG Version: 6.00 Build 0)  -->
<svg version="1.1" xmlns="http://www.w3.org/2000/svg" xmlns:xlink="http://www.w3.org/1999/xlink" x="0px" y="0px"
	 viewBox="0 0 1920 462" style="enable-background:new 0 0 1920 462;" xml:space="preserve">
<style type="text/css">
	.st0{display:none;}
</style>

<g id="Layer_2">
	<g>
		<g>
			<path d="M65.25,95.13c-1.89,37.11-3.78,74.21-5.67,111.32c-2.99,58.68-5.98,117.35-8.97,176.03
				c-0.68,13.43-1.37,26.85-2.05,40.28c-0.39,7.74,13.7,0.14,15.31-0.94c8.26-5.54,16.17-13.32,20.43-22.42
				c5.65-12.07,11.3-24.15,16.95-36.22c0.99-2.12,2.12-4.22,2.99-6.39c1.31-3.27-3.53,5.93-1.95,3.35c1.37-2.24,2.67-4.52,3.99-6.79
				c16.48-28.13,32.58-56.49,48.19-85.1c17.54-32.14,35.57-64.68,48.86-98.87c7.76-19.97,12.41-41.09,11.92-62.65
				c-0.33-14.55-4.79-37.77-22.67-40.23c-6.19-0.85-12.98,2.84-17.86,6.12c-7.81,5.25-14.75,11.94-20.49,19.4
				c-8.63,11.23-14.97,23.87-20,37.07c-12.08,31.75-19.53,65.17-24.29,98.76c-5.13,36.15-7.73,73.53-3.23,109.9
				c1.83,14.81,4.91,29.71,10.86,43.46c5.02,11.6,11.66,22.87,22.32,30.12c13.15,8.94,28.31,2.19,40.04-6.2
				c18.7-13.38,33.41-31.26,46.18-50.23c19.73-29.33,36.19-61.91,48.12-95.21c1.24-3.47,2.58-7.02,3.19-10.67
				c1.73-10.51-10.13-5.66-15.05-2.37c-5.32,3.57-10.3,7.94-14.26,12.98c-3.04,3.87-6.82,8.51-7.64,13.49
				c-0.59,3.57-1.95,6.97-3.09,10.39c-0.31,0.95,1.66-4.41,0.63-1.76c-0.23,0.61-0.46,1.22-0.69,1.82c-0.54,1.42-1.1,2.83-1.66,4.23
				c-1.28,3.18-2.6,6.34-3.97,9.48c-6.56,15.12-14.01,29.78-21.89,44.25c-1.04,1.92,1.47-2.59,1.3-2.29
				c-0.36,0.6-0.69,1.22-1.04,1.82c-0.52,0.91-1.05,1.82-1.58,2.72c-1.14,1.96-2.3,3.9-3.48,5.84c-2.23,3.66-4.52,7.28-6.89,10.85
				c-1.11,1.67-2.23,3.32-3.38,4.96c-0.66,0.94-1.33,1.87-1.99,2.8c-2.62,3.71,3.06-4.01,1.01-1.37c-2.35,3.03-4.68,6.06-7.19,8.95
				c-0.78,0.9-3.23,3.61,0.22-0.19c3.43-3.78,1.04-1.15,0.22-0.29c-1.3,1.37-2.72,2.62-4.02,3.98c-1.17,1.22,5.74-4.92,2.64-2.42
				c-0.58,0.46-1.14,0.95-1.71,1.42c-0.84,0.7-3.36,2.54,0.45-0.27c3.85-2.83,1.12-0.86,0.18-0.22c-4.16,2.83,3.97-1.76,0.68-0.34
				c-0.54,0.23-1.15,0.46-1.65,0.76c-1.79,1.05,4.33-1.14,1.61-0.58c-1.12,0.23-2.38,0.44-3.46,0.77c-1.59,0.48,2.81,0.21,1.21-0.12
				c-0.56-0.11-1.22-0.03-1.8-0.09c-1.04-0.11-2-0.38-3.01-0.63c-0.39-0.1-2.12-0.83-0.55-0.14c1.57,0.7-0.37-0.24-0.75-0.49
				c-2.29-1.49-4.48-3.08-6.52-4.91c-4.19-3.76-7.71-8.23-10.67-13.02c-1.57-2.54-2.94-5.18-4.26-7.85
				c-0.84-1.7,0.58,1.39-0.17-0.38c-0.29-0.69-0.6-1.38-0.89-2.08c-0.64-1.54-1.23-3.1-1.8-4.67c-2.38-6.59-4.18-13.39-5.6-20.25
				c-3.22-15.62-4.51-31.63-4.82-47.56c-0.17-8.66-0.03-17.32,0.35-25.96c0.19-4.33,0.44-8.65,0.75-12.98
				c0.07-1.04,0.15-2.08,0.23-3.13c-0.17,2.25-0.01,0.13,0.08-0.87c0.21-2.44,0.44-4.87,0.68-7.3c3.31-33,9.33-66,18.99-97.75
				c1.04-3.42,2.13-6.82,3.28-10.21c0.5-1.48,1.05-2.96,1.55-4.44c0.35-1.05-1.52,4.06-0.43,1.19c0.31-0.81,0.61-1.63,0.92-2.44
				c2.04-5.31,4.26-10.56,6.82-15.64c0.53-1.04,1.09-2.06,1.62-3.1c1.41-2.73-2.2,3.69-1.5,2.64c0.34-0.51,0.63-1.08,0.95-1.6
				c0.52-0.86,1.08-1.7,1.62-2.55c0.3-0.46,0.67-0.89,0.94-1.37c0.58-1.02-4.55,5.78-2.37,3.24c0.51-0.6,1.2-1.26,1.6-1.93
				c0.28-0.46-5.69,6.1-3.41,3.79c0.88-0.9,2.7-2.5-1.41,1.23c-1.78,1.62-3.4,3-5.37,4.27c2.6-1.69-5.91,2.84-2.51,1.46
				c-0.25,0.1-5.18,1.46-2.28,0.95c0.65-0.12-3.74-0.53-1.45,0.18c0.84,0.26,1.8,0.46,2.65,0.65c1.65,0.38-1.33-0.89,0.12,0.01
				c0.68,0.42,1.37,0.8,2.02,1.27c2.66,1.93,4.74,4.56,6.36,7.4c0.2,0.35,1.18,2.33,0.83,1.55c-0.34-0.75,0.54,1.42,0.68,1.83
				c0.74,2.07,1.32,4.21,1.79,6.36c4.16,19.35,0.77,40.27-5.63,58.98c-0.22,0.65-0.46,1.29-0.68,1.93c-0.85,2.48,1.48-3.88,0.5-1.37
				c-0.6,1.53-1.17,3.07-1.77,4.59c-1.33,3.35-2.73,6.68-4.17,9.99c-3.24,7.46-6.69,14.83-10.23,22.15
				c-8.07,16.69-16.63,33.13-25.38,49.46c-8.81,16.44-17.84,32.76-26.99,49.01c-1.89,3.36,1.23-2.18,0.6-1.07
				c-0.49,0.86-0.97,1.72-1.46,2.58c-1.03,1.81-2.06,3.63-3.09,5.44c-1.93,3.4-3.87,6.79-5.81,10.18
				c-3.2,5.57-6.41,11.13-9.63,16.68c-3.07,5.28-6.2,10.53-9.27,15.82c-6.64,11.45-11.65,23.95-17.26,35.92
				c-1.88,4.02-3.76,8.03-5.64,12.05c11.91-7.78,23.83-15.57,35.74-23.35c1.89-37.11,3.78-74.21,5.67-111.32
				c2.99-58.68,5.98-117.35,8.97-176.03c0.68-13.43,1.37-26.85,2.05-40.28c0.18-3.57-4.66-3.53-6.69-3.12
				c-4.67,0.93-10,4.7-13.49,7.64C74.89,75.4,65.79,84.5,65.25,95.13L65.25,95.13z"/>
		</g>
	</g>
	<g>
		<g>
			<path d="M366.9,407.41c27.28-30.58,54.56-61.16,81.84-91.74c10.5-11.77,26.68-25.94,32.05-40.85c0.27-0.76,0.73-2.13-0.43,1.17
				c-1.35,3.82-0.13,0.36,0.27-0.6c1.19-2.86,2.4-5.69,3.74-8.48c0.87-1.83,1.78-3.65,2.72-5.45c0.48-0.92,0.98-1.83,1.47-2.75
				c2.07-3.92-2.31,3.79,0.17-0.29c1.37-2.25,2.72-4.51,4.15-6.72c0.7-1.08,1.42-2.15,2.15-3.22c0.56-0.82,3.57-5.13,1.31-1.93
				c-2.32,3.27,1.33-1.7,2-2.53c1.04-1.31,2.12-2.59,3.18-3.88c0.24-0.29,1.94-2.17,1.92-2.21c0.13,0.2-4.28,4.48-1.47,1.64
				c1.24-1.26,2.45-2.55,3.71-3.79c0.55-0.54,1.11-1.06,1.65-1.6c3.77-3.79-3.38,2.78-0.91,0.81c1.44-1.15,2.8-2.4,4.24-3.55
				c0.62-0.5,1.29-0.96,1.89-1.48c2.16-1.87-3.94,2.63-0.3,0.23c1.6-1.05,3.19-2.13,4.8-3.17c0.7-0.45,1.42-0.86,2.13-1.3
				c-2.42,1.5-1.17,0.6,0.57-0.29c1.78-0.91,3.56-1.81,5.38-2.64c2.12-0.97,4.26-1.9,6.45-2.69c-1.63,0.59,2.84-0.87,3.59-1.09
				c9.25-2.73,18.7-4.12,28.33-4.21c10.24-12.49,20.47-24.98,30.71-37.48c-66.7,1.69-127.75,55.43-146.66,117.47
				c-8.46,27.74-9.01,58.15-5.45,86.75c2.67,21.45,12.17,44.82,36.43,47.47c19.79,2.16,39.72-7.21,56.34-16.92
				c18.26-10.67,32.27-25.97,46.47-41.42c47.48-51.63,95.56-109.92,118.36-177.25c1.45-4.28,5.17-12.77,4.16-17.87
				c-2.74-13.9-27.55,10.33-30.63,14.14c-7.95,9.83-12.7,22.07-17.28,33.72c-13.95,35.5-25.91,73-30.25,111.02
				c-3.13,27.39-4.23,72.32,32.97,75.1c23.85,1.78,46.34-12.3,64.35-26.32c22.5-17.51,41.58-39.53,58.46-62.38
				c27.02-36.56,52.36-77.12,68.7-119.75c1.2-3.14,2.33-6.32,3.43-9.49c0.72-2.09,2.13-4.17-0.73,1.94
				c-11.83,6.68-23.65,13.37-35.48,20.05c-0.38,3.74-2.48,7.9-3.56,11.48c-2.91,9.62-5.66,19.3-8.23,29.02
				c-7.17,27.06-13.35,54.61-16.22,82.49c-2.23,21.67-5.57,51.31,8.77,69.96c10.22,13.3,26.17,8.82,39.17,2.63
				c19.96-9.5,37.77-23.91,54.21-38.48c22.81-20.22,43.94-42.08,64.21-64.82c41.18-46.19,79.1-96.44,109.69-150.31
				c13.63-24.01,26.12-48.79,34.3-75.25c5.26-17.04,9.81-37.69,4.03-55.17c-7.07-21.39-28.43-31.66-49.62-22.94
				c-35.88,14.77-58.68,55.08-73.72,88.74c-24.32,54.42-37.51,113.25-47.17,171.83c-5.93,35.97-10.63,72.77-9.73,109.3
				c0.55,22.11,2.2,55.54,22.66,69.53c21.68,14.83,47.72-6.29,62.69-21.37c21.78-21.93,37.42-49.53,50.83-77.13
				c14.24-29.32,25.99-59.86,36.47-90.71c7.68-22.6,15.1-45.65,19.69-69.11c1.03-5.24,4.23-15.05,0.89-19.74
				c-1.88-2.63-7.96-0.07-9.68,0.68c-12,5.19-25.34,18.75-27.08,32.36c-0.74,5.79-0.92,11.75-0.81,17.58
				c0.3,14.77,2.84,30.79,11.42,43.21c10.22,14.8,29.04,16.81,45.22,11.98c23.13-6.9,43.11-23.13,59.74-40.13
				c7.35-7.51,14.32-15.46,20.83-23.71c1.92-2.44,3.79-4.91,5.68-7.38c0.6-0.79,1.23-1.56,1.81-2.36c0.21-0.29,0.47-0.54,0.67-0.84
				c-2.2,3.26-15.35,13.6-17.84,14.57c-2.45,0.58-4.9,1.16-7.35,1.74c0.02,0.01,0.03,0.01,0.05,0.02c-1.13-1.13-2.26-2.26-3.38-3.38
				c-0.42-1.13,2.08-7.22,1.13-5.43c-0.64,1.21-1.13,2.53-1.7,3.77c-2.5,5.42-5.1,10.8-7.66,16.19
				c-4.64,9.77-9.39,19.49-14.07,29.24c-11.97,24.95-23.64,50.09-33.55,75.95c-8.6,22.44-43.25,108.81,8.5,106.47
				c32.6-1.47,61.62-24.72,83.78-46.64c26.96-26.67,48.84-58.34,68.77-90.46c20.15-32.47,37.87-65.3,55.87-96.54
				c1.59-2.75,7.34-10.39,0.36-1.73c-3.87,4.79-13.29,13.73-20.32,15.23c-2.74,0.59-3.55,0.58-1.89,0.41
				c-2.95,0.3-1.53-1.59-0.44,0.31c0.85,1.48,1.96,2.82,2.78,4.36c0.94,1.75-0.91-2.26-0.15-0.3c0.22,0.56,0.47,1.12,0.67,1.69
				c0.52,1.5,1.05,2.98,1.52,4.5c4.78,15.55,6.66,32.14,7.92,48.3c1.6,20.47,1.61,43.62-0.31,61.78c-1.04,9.8-2.57,19.56-4.93,29.13
				c-1.09,4.43-2.45,8.74-3.84,13.08c1.55-4.84-0.72,1.76-1.23,2.95c-0.94,2.19-2.16,4.27-3.06,6.46c-1.45,3.51,2.84-4.2,0.67-1.15
				c-0.54,0.75-1.06,1.63-1.52,2.43c-2.64,4.6,4.14-4.7-0.24,0.32c-2.69,3.09,4.97-5.16,2.11-2.29c-1.51,1.52-4.4,3.78,2.43-2.08
				c-4.95,4.25,5.05-2.8-0.54,0.41c6.67-3.82,1.01-0.86-0.62-0.02c4.72-2.43,0.93-0.39-0.76-0.02c-1.06,0.24-6.32,0.59-2.74,0.52
				c-2.19,0.04-4.34-0.01-6.52-0.26c-1.63-0.19-3.24-0.48-4.83-0.87c1.16,0.29,0.67,1.26-0.21-0.37c-0.33-0.6-1.05-1.41-1.48-1.97
				c1.81,2.35,0.1,0.45,0.05-1.29c-0.03-1.13-0.04-2.27-0.08-3.4c0.13,4.35,0.09,0,0.34-1.35c0.67-3.57,1.84-6.98,2.97-10.42
				c-1.77,5.36,0.51-1.14,1.04-2.4c0.69-1.65,1.41-3.29,2.16-4.92c2.14-4.7,4.46-9.31,6.88-13.86c1.22-2.29,2.48-4.56,3.74-6.83
				c-3.04,5.46,1.41-2.36,2.18-3.67c3.18-5.36,6.47-10.66,9.85-15.9c6.9-10.7,14.17-21.15,21.67-31.44
				c-4.18,5.73,1.45-1.9,2.45-3.22c1.71-2.26,3.44-4.51,5.18-6.74c4.05-5.2,8.17-10.33,12.39-15.39c3.74-4.48,7.6-8.85,11.43-13.26
				c3.47-4-4.29,4.59-0.7,0.77c0.94-1,1.86-2.02,2.8-3.02c2.12-2.26,4.27-4.5,6.45-6.7c1.77-1.79,3.57-3.57,5.39-5.32
				c0.87-0.84,1.77-1.65,2.64-2.5c3.41-3.32-5.01,4.37-1.47,1.32c1.68-1.44,3.32-2.91,5.03-4.32c2.26-1.86,8.82-5.05,1.51-1.36
				c1.31-0.66,2.52-1.78,3.76-2.58c0.71-0.46,1.48-0.86,2.17-1.35c2.79-1.96-4.9,2.1-1.79,1.03c1.23-0.42,2.79-1.14,3.92-1.79
				c-4.72,2.71-1.38,0.89,0.65,0.17c1.91-0.67-3.03-0.42-1.19,0.1c0.51,0.14,1.12-0.03,1.64,0.12c1.05,0.31,4.19,1.71,1.77,0.25
				c2.5,1.51,4.12,3.42,5.68,5.86c0.27,0.42,1.19,2.59,0.22,0.29c0.3,0.71,0.61,1.45,0.82,2.19c0.48,1.64,0.96,3.26,1.31,4.93
				c0.89,4.25,1.27,8.61,1.43,12.95c0.41,10.78-0.29,18.29-1.48,28.17c-5.09,42.11-16.11,83.74-28.25,124.32
				c-0.79,2.65-1.59,5.29-2.42,7.92c-2.99,9.5,8.66,5.93,12.76,3.66c9.06-5.02,18.56-14.08,22.71-23.71
				c7.98-18.52,16.68-36.76,25.66-54.81c4.02-8.07,8.12-16.11,12.33-24.08c2.14-4.06,4.32-8.11,6.52-12.15
				c1.11-2.04,2.23-4.07,3.36-6.1c0.5-0.9,1.01-1.8,1.51-2.71c-2.53,4.53,0.09-0.14,0.48-0.82c4.68-8.17,9.51-16.26,14.57-24.2
				c2.36-3.7,4.76-7.37,7.23-11c1.19-1.75,2.4-3.5,3.63-5.23c0.53-0.75,1.09-1.5,1.61-2.26c2.85-4.12-3.39,4.37-0.36,0.48
				c2.38-3.06,4.71-6.15,7.2-9.13c1.04-1.25,2.13-2.45,3.17-3.69c2.93-3.5-4.02,4.13-1.72,1.9c0.81-0.78,1.55-1.64,2.34-2.44
				c1.12-1.13,2.43-2.18,3.47-3.37c-5.15,5.91-4.17,3.56-2.64,2.43c0.23-0.17,1.31-0.93,1.51-1.27c0.46-0.77,3.81-2.46-0.19,0.04
				c-3.77,2.36-1.02,0.75-0.22,0.21c0.46-0.32,1.03-0.59,1.46-0.95c2.41-1.97-4.52,1.95-1.7,0.95c0.76-0.27,4.7-1.8,1.48-0.78
				c-3.43,1.08,0.95,0.04,1.37-0.21c2.18-1.28-1.14-0.23-0.02-0.05c1.13,0.19,2.32,0.24,3.46,0.43c2.53,0.42,1.39-0.13,3.86,2.01
				c2.08,1.8,3.7,3.73,5.2,6.04c2.04,3.14,3.75,9.74,4.62,15.46c1.2,7.92,1.35,15.98,1.11,23.97c-0.52,17.13-3.36,35.48-6.74,53.35
				c-5.1,26.93-11.62,53.76-19.7,79.96c-2.93,9.5,8.62,5.95,12.76,3.66c8.73-4.84,19.11-14.14,22.71-23.71
				c10.29-27.33,22.33-54.13,35.4-80.23c2.69-5.36,5.43-10.69,8.25-15.98c1.3-2.43,2.61-4.85,3.93-7.26c0.8-1.45,1.6-2.89,2.41-4.33
				c-1.73,3.08-0.18,0.34,0.68-1.15c5.87-10.15,12.11-20.07,18.85-29.66c0.29-0.41,3.26-4.52,0.87-1.25
				c-2.37,3.24,0.56-0.74,0.88-1.15c1.48-1.91,2.96-3.82,4.49-5.69c0.89-1.09,1.81-2.15,2.71-3.24c3.71-4.5-0.86,0.83-0.85,0.84
				c-0.22-0.34,4.96-5.11,5.46-5.61c4.51-4.56-4.5,3.5,0.54-0.45c0.73-0.57,1.64-1.16,2.28-1.83c1.99-2.1-5.22,3.39-1.68,1.25
				c0.91-0.55,1.86-1.16,2.72-1.78c2.74-1.97-1.9,1.07-1.86,1.02c1.06-1.47,7.25-2.5,2.24-1.28c1.78-0.43,3.54-0.91,5.33-1.31
				c0.72-0.16,2.42-0.11-0.72-0.01c0.76-0.02,1.58-0.13,2.34-0.03c1.13,0.15,2.26,0.32,3.38,0.48c1.79,0.25-0.58-1.21,1.37,0.65
				c0.64,0.61,1.28,1.35,1.94,1.92c0.4,0.34,0.62,0.99,0.9,1.42c-1.39-2.16-0.36-1.06-0.15-0.14c0.6,2.59,0.75,4.95,0.9,7.59
				c0.2,3.34,0.48-1.81-0.13,1.72c-0.26,1.53-0.46,3.08-0.75,4.61c-0.81,4.2-1.93,8.34-3.16,12.43c-1.17,3.89-2.49,7.73-3.84,11.56
				c-1.45,4.11,1.26-3.33-0.3,0.81c-0.31,0.82-0.62,1.65-0.93,2.47c-1.04,2.75-2.11,5.48-3.19,8.21
				c-7.48,18.86-15.75,37.41-22.83,56.42c-5.58,14.99-13.14,32.71-11.42,49.13c2.45,23.3,34.66,16.74,49.71,12
				c31.65-9.97,59.58-30.75,84.86-51.73c25.71-21.35,50.28-45.47,68.65-73.56c13.21-20.19,26.97-48.13,16.63-72.35
				c-10.93-25.61-37.66-17.84-56.83-6.3c-30.33,18.26-54.07,48.21-70.89,78.87c-12.46,22.72-20.09,46.98-20.84,72.89
				c-0.54,18.72,2.05,40.62,14.22,55.72c14.76,18.31,39.35,13.92,58.37,5.66c31.89-13.84,57.46-39.71,74.2-69.81
				c20.72-37.24,27.07-82.16,25.98-124.32c-0.07-2.61-0.15-5.23-0.35-7.84c-12.49,10.24-24.98,20.47-37.48,30.71
				c1.7,9.33,5.36,19.5,11.22,26.99c14.3,18.28,37.81,3.87,51.33-7.76c4.84-4.17,9.51-8.85,12.98-14.26
				c1.66-2.59,5.19-8.36,4.32-11.93c-2.22-9.08-17.33,2.07-20.18,4.52c-1.01,0.9-2.04,1.76-3.11,2.58c1.08-1.02,2.3-1.83,3.64-2.43
				c-2.74,2.14,1.73-0.19-1.19,0.53c-1.71,0.42,0.3,0.67-2.51,0.14c-1.05-0.2-2.1-0.33-3.11-0.71c-2.74-1.02-7.09-6-9.33-9.73
				c-3.13-5.21-5.35-11.86-6.59-18.64c-1.69-9.27-17.16,1.98-20.18,4.52c-6.79,5.73-18.07,16.12-17.3,26.19
				c2.24,29.24-0.78,57.16-8.94,85.66c-3.1,10.84-6.23,19.14-12.38,30.31c2.2-4-1.96,3.04-2.67,4.12c-0.62,0.94-1.29,1.85-1.91,2.79
				c3.39-5.12,0.29-0.41-0.48,0.55c-0.7,0.88-1.45,1.73-2.16,2.61c-3.53,4.4,3.28-2.84,0.49-0.53c-0.5,0.42-2.49,3.11-3.01,3.01
				c2.85-2.53,3.23-2.87,1.13-1.03c-0.44,0.37-0.88,0.74-1.31,1.1c-0.91,0.75-5.63,3.98-0.62,0.61c-0.97,0.65-1.91,1.32-2.89,1.95
				c-3.17,2.05-2.37,1.62-6.14,3.53c-6.5,3.29-9.23,4.51-16.17,5.85c-6.33,1.23-15.01,0.53-20.94-3.44
				c-14.24-9.54-17.99-28.15-19.18-44.17c-1.4-18.89,0.99-36.42,8.76-54.88c1.45-3.43,3.01-6.82,4.67-10.15
				c0.83-1.67,1.69-3.31,2.57-4.95c1.97-3.67-2.4,3.97,1.23-2.2c1.86-3.16,3.82-6.25,5.86-9.29c0.81-1.2,1.64-2.38,2.46-3.57
				c1.6-2.23,1.67-2.34,0.22-0.32c0.85-1.12,1.72-2.23,2.6-3.33c0.87-1.09,1.75-2.16,2.64-3.23c0.08-0.09,4.5-5.21,1.8-2.16
				c-2.66,3,1.73-1.79,1.86-1.92c1.11-1.13,2.46-2.19,3.46-3.42c2.43-2.98-4.69,3.85-0.06,0.03c1.16-0.96,2.34-1.92,3.49-2.9
				c1.11-0.94,4.57-3.12,0.01-0.09c1.38-0.92,2.78-1.82,4.15-2.75c4.28-2.9-3.72,1.38,0.88-0.49c0.89-0.36,1.83-0.85,2.68-1.27
				c4.06-2-1.97,0.5,0.54-0.29c1.06-0.33,2.11-0.65,3.2-0.91c2.84-0.66,3.2-0.62,3.99-0.58c2.24,0.09,4.53,0.32,6.64,1.13
				c6.46,2.46,11.06,11.24,12.45,18.68c0.86,4.57,0.94,8.9,0.33,12.7c-0.41,2.55-0.98,5.07-1.7,7.56c-0.29,1.03-0.61,2.05-0.95,3.06
				c0.92-2.73-1.3,3.12-1.55,3.66c-1.06,2.38-2.23,4.7-3.45,7c-1.61,3.05,2.57-4-0.53,0.89c-0.82,1.3-1.61,2.62-2.44,3.91
				c-1.54,2.38-3.15,4.71-4.8,7.02c3.26-4.56-0.6,0.71-1.1,1.35c-1.22,1.56-2.47,3.1-3.73,4.63c-2.14,2.59-4.35,5.12-6.59,7.62
				c4.29-4.78-3.02,3.08-3.95,4.03c-2.41,2.46-4.86,4.88-7.34,7.26c-0.99,0.95-1.99,1.9-3,2.84c-1,0.94-2.01,1.88-3.03,2.81
				c2.14-1.93,2.51-2.27,1.11-1.03c-5.09,4.41-10.16,8.82-15.4,13.05c-2.27,1.83-4.57,3.65-6.88,5.43c-1.5,1.16-3.02,2.29-4.52,3.45
				c-4.98,3.82,3.95-2.78-1.06,0.78c-10.79,7.68-21.58,15.19-33.82,20.39c-10.47,4.45-26.41,9.75-37.77,5.23
				c-1.79-0.71-3.08-2.01-4.55-3.83c-0.18-0.22,0.11,1.53-0.33-0.93c-0.22-1.21-0.52-2.37-0.65-3.61c-0.13-1.25-0.09-2.5-0.12-3.76
				c-0.06-2.66-0.45,2.02,0.1-1.31c0.58-3.56,1.19-7.07,2.07-10.58c0.93-3.68,2.02-7.32,3.2-10.93c0.64-1.96,1.31-3.9,1.98-5.84
				c0.28-0.8,0.57-1.6,0.85-2.4c-1.43,3.99,0.25-0.65,0.55-1.46c3.34-8.88,6.95-17.65,10.58-26.41c7.5-18.1,15.26-36.16,21.35-54.8
				c3.69-11.3,9.06-26.82,4.68-38.59c-5.34-14.31-23.13-10.3-34.09-5.59c-20.99,9.02-38.42,27.33-52.38,44.88
				c-15.19,19.09-27.82,39.96-39.51,61.33c-16.98,31.04-31.65,63.44-44.6,96.36c-0.74,1.88-1.48,3.77-2.19,5.66
				c11.83-6.68,23.65-13.37,35.48-20.05c7.41-24.01,13.44-48.56,18.38-73.18c4-19.95,7.11-40.09,8.3-60.42
				c0.92-15.7,1.11-32.82-5.93-47.28c-17.43-35.8-61.06,7.21-75.54,23.55c-26.78,30.23-46.66,66.93-65.18,102.57
				c-12.41,23.88-24.19,48.17-34.85,72.88c11.83-6.68,23.65-13.37,35.48-20.05c13.25-42.09,24.67-85.67,30.32-129.46
				c1.69-13.1,3.02-26.51,2.25-39.73c-0.5-8.57-1.91-19.15-7.91-25.82c-14.68-16.31-42.77,6.77-54.23,16.22
				c-23.62,19.47-44,43.14-62.75,67.23c-20.13,25.86-38.72,52.91-54.62,81.57c-6.14,11.08-11.6,22.43-15.8,34.39
				c-2.46,6.99-5.24,15.8-3.51,23.25c1.92,8.25,9.18,9.86,16.77,10.07c13.38,0.36,25.3-4.99,35.91-12.8
				c46.69-34.37,52.46-97.38,50.52-150.86c-0.77-21.2-2.53-43.25-8.63-63.67c-1.54-5.16-3.39-12.38-7.62-16.06
				c-10.47-9.09-28.55,10.21-33.91,17c-5.84,7.39-10.1,15.93-14.74,24.09c-6.03,10.63-11.64,20.62-16.7,29.54
				c-11.31,19.95-22.78,39.83-34.99,59.24c-6.02,9.57-12.23,19.03-18.72,28.3c-1.48,2.11-2.98,4.2-4.48,6.3
				c-2.68,3.75-0.87,1.2-0.29,0.42c-0.86,1.16-1.72,2.31-2.6,3.46c-3.41,4.49-6.9,8.92-10.51,13.25c-1.53,1.84-3.11,3.65-4.66,5.47
				c-0.66,0.77-1.35,1.51-2.01,2.28c3.56-4.19,1.27-1.36,0.43-0.49c-3.56,3.74-7.17,7.4-10.9,10.97c-3.4,3.25,3.69-3.05-1.29,1.09
				c-1.62,1.34-3.22,2.7-4.87,4c-0.92,0.73-1.86,1.44-2.8,2.15c0.59-0.45,4.15-2.8,0.65-0.55c-1.89,1.22-3.78,2.45-5.66,3.68
				c-2.99,1.95,2.3-1.01-1.85,1.02c-1.67,0.82-3.33,1.65-5.03,2.4c-0.95,0.42-1.92,0.82-2.89,1.2c0.64-0.25,2.8-0.89-0.3,0.09
				c-1.93,0.61-3.87,1.17-5.83,1.63c-1.94,0.45-3.9,0.79-5.87,1.1c-2.59,0.4,0.72,0.19-2.15,0.2c-2.51,0.01-4.86-0.26-7.33-0.71
				c-2.88-0.54-1.64,0.12-4.09-1.78c-1.57-1.22-2.95-2.51-4.11-4.14c-0.62-0.88-1.17-1.82-1.63-2.79c0.84,1.76-0.17-0.64-0.34-1.27
				c-0.68-2.46-1.17-4.92-1.42-7.46c-0.64-6.76-0.21-9.82,0.6-15.22c1.04-7.01,2.66-13.94,4.53-20.77
				c4.77-17.4,9.32-29.17,16.03-45.47c11.98-29.09,25.87-57.3,39.45-85.65c4.51-9.41,11.79-20.24,13.82-30.66
				c3.28-16.83-22.32,2.75-25.29,5.73c-3.43,3.44-6.25,7.11-9.17,10.94c-3.35,4.39-6.76,8.72-10.34,12.93
				c-0.98,1.16-1.99,2.3-2.98,3.45c-3.56,4.11,3.44-3.54,0.33-0.36c-2.7,2.76-5.41,5.5-8.17,8.21c-3.14,3.1,4.7-3.92-0.07,0.03
				c-1.36,1.12-2.7,2.25-4.07,3.37c-0.78,0.64-1.6,1.23-2.39,1.85c0.46-0.36,4.57-2.97,1.2-0.93c-1.7,1.03-3.38,2.17-5.04,3.26
				c-2.98,1.95,2.96-1.26-1.27,0.63c-1.56,0.7-3.09,1.45-4.66,2.12c-2.94,1.25-0.64,0.23-0.01,0.03c-0.91,0.29-1.82,0.6-2.74,0.83
				c-1.84,0.46-3.68,0.9-5.56,1.2c-10.96,1.75-21.79-3.23-28.3-13.92c-5.7-9.36-7.43-22.13-7.94-33.43
				c-0.21-4.54-0.08-9.06,0.11-13.6c-0.14,3.21,0.84-0.86,0.19-1.56c-0.21-0.22,0.29-1.9,0.41-2.24c-1.35,2.87-2.71,5.75-4.06,8.62
				c0.01-0.02,0.02-0.04,0.04-0.07c-7.47,6.81-14.94,13.62-22.42,20.43c0.01,0,0.02-0.01,0.03-0.01c-3.23,0.23-6.45,0.45-9.68,0.68
				c-0.19-0.27-1.78-2.48-0.99-1.71c0.22,0.21-0.2,1.01-0.04,1.27c0.54,0.85,0.37-2.91,0.05-0.67c-0.09,0.62-0.13,1.26-0.21,1.88
				c-0.47,3.39-1.08,6.74-1.78,10.09c-2.02,9.71-4.59,19.3-7.31,28.83c-3.57,12.5-7.49,24.9-11.66,37.21
				c-1.04,3.08-2.1,6.15-3.18,9.22c-0.59,1.68-1.18,3.36-1.78,5.03c-0.35,0.97-0.69,1.93-1.04,2.89c-0.9,2.5,0.81-2.2-0.11,0.31
				c-2.62,7.13-5.33,14.23-8.14,21.29c-5.43,13.64-11.21,27.15-17.52,40.41c-3.12,6.57-6.37,13.07-9.79,19.49
				c-0.8,1.49-1.61,2.98-2.42,4.47c-1.08,1.98-1.93,3.33-0.2,0.4c-1.76,2.97-3.47,5.97-5.28,8.9c-1.61,2.62-3.27,5.21-4.98,7.76
				c-0.82,1.23-1.66,2.45-2.51,3.66c-0.36,0.51-0.72,1.01-1.08,1.52c-2.65,3.79,0.65-1.49,1.06-1.43c-0.62-0.09-4.1,5.21-4.69,5.92
				c-0.81,0.97-1.81,1.9-2.53,2.93c-0.06,0.08,4.95-5.12,2.3-2.57c-0.5,0.48-0.97,0.99-1.45,1.49c-0.87,0.91-4.21,3.93-0.43,0.54
				c3.79-3.4,0.56-0.42-0.43,0.28c-3.77,2.68,2.97-1.73,1.62-1.11c-0.81,0.38-1.82,1.11-2.52,1.67c-2.37,1.9,4.51-3.01,1.35-0.8
				c-0.74,0.52-1.71,0.68-2.49,1.11c1.86-1.02,3.44-0.9,0.86-0.43c-0.93,0.17-1.89,0.36-2.82,0.56c-0.07,0.02,2.62,0.28,0.16-0.06
				c-0.8-0.11-1.62-0.07-2.42-0.17c-1.65-0.22-3.23-0.66-4.79-1.23c0.11,0.04,0.87,0.58-0.71-0.38c-0.79-0.48-1.58-0.95-2.33-1.49
				c-1.78-1.25-3.42-2.72-4.91-4.3c-7.29-7.76-9.96-17.19-12.08-27.78c-5.97-29.88-3.49-61.63-0.12-91.67
				c6.16-54.88,16.51-110.65,33.56-163.29c5.01-15.46,9.37-27.38,16.4-43.21c3.32-7.48,6.93-14.82,10.8-22.03
				c1.11-2.06-0.39,0.64-0.52,0.87c0.55-0.97,1.11-1.93,1.68-2.89c0.98-1.65,1.98-3.28,3-4.9c1-1.57,2.02-3.13,3.07-4.67
				c0.44-0.64,0.94-1.26,1.34-1.92c1.54-2.55-3.63,4.42-0.41,0.57c0.94-1.12,1.89-2.28,2.77-3.44c2.61-3.43-4.19,4.1-0.22,0.22
				c3.09-3.03,2.2-2.09-0.58,0.35c4.29-3.76-2.41,1.41,0.08-0.23c3.53-2.33-0.33,0.09-0.03-0.09c1.21-0.73,4.73-1.42,0.58-0.44
				c1.04-0.25,2.09-0.55,3.13-0.81c0.66-0.17,1.42-0.26,2.1-0.33c-1.16,0.12-1.42,0.03-0.12,0.11c8.63,0.48,15.79,4.64,21.11,11.56
				c0.96,1.25,1.76,2.58,2.58,3.92c0.41,0.67,0.75,1.4,1.09,2.1c-0.97-1.99-0.03-0.1,0.27,0.85c1.05,3.25,1.92,6.47,2.37,9.87
				c0.5,3.73,0.55,7.47,0.45,11.23c-0.01,0.4-0.23,3.75-0.08,1.79c0.16-1.99-0.15,1.38-0.21,1.88c-0.29,2.3-0.62,4.59-1.03,6.88
				c-0.83,4.6-1.92,9.15-3.19,13.65c-0.68,2.41-1.41,4.81-2.18,7.19c-0.4,1.23-0.81,2.45-1.23,3.68c-0.52,1.52-1.75,4.75-0.43,1.29
				c-4.19,10.98-8.9,21.71-14.14,32.23c-2.8,5.63-5.73,11.2-8.76,16.71c-0.78,1.42-1.58,2.82-2.35,4.24
				c1.89-3.46,0.62-1.09-0.54,0.92c-1.78,3.09-3.58,6.16-5.42,9.22c-7.1,11.86-14.58,23.48-22.34,34.92
				c-4.14,6.1-8.36,12.14-12.65,18.14c-1.94,2.71-3.91,5.39-5.86,8.09c3.83-5.29,0.36-0.5-0.54,0.71c-1.23,1.65-2.46,3.29-3.7,4.93
				c-8.78,11.63-17.81,23.07-27.1,34.3c-4.47,5.41-9,10.77-13.59,16.08c-2.26,2.61-4.53,5.21-6.81,7.79
				c-1.13,1.28-2.26,2.55-3.4,3.83c-0.88,0.98-5.1,5.66-2.13,2.38c2.95-3.26-0.84,0.91-1.64,1.78c-1.12,1.22-2.25,2.44-3.38,3.65
				c-2.23,2.39-4.47,4.77-6.72,7.13c-4.51,4.72-9.08,9.39-13.72,13.98c-4.23,4.19-8.52,8.33-12.88,12.39
				c-1.04,0.97-2.11,1.92-3.15,2.91c-0.6,0.57,4.85-4.33,0.93-0.85c-2.17,1.92-4.34,3.85-6.53,5.74c-3.83,3.3-7.73,6.52-11.71,9.64
				c-1.23,0.96-7.18,5.4-3.54,2.76c3.76-2.72-2.36,1.67-3.68,2.57c-3.1,2.13-7.21,3.83-9.99,6.31c1.16-1.03,4.88-2.58,1.57-0.93
				c-0.76,0.38-1.5,0.79-2.26,1.16c-1.42,0.7-2.88,1.32-4.32,1.97c-4.13,1.86,3.52-0.81-0.54,0.18c-1.3,0.32-2.66,0.59-3.95,0.96
				c-3.13,0.9,1.47,0.48-0.28,0.11c-0.99-0.21-2.18-0.12-3.2-0.25c-0.64-0.08-3.51-1.16-1.63-0.35c1.9,0.81-0.67-0.41-1.19-0.8
				c-0.83-0.61-1.67-1.19-2.45-1.88c-2.86-2.52-5.07-5.79-6.67-9.24c0.5,1.07-1.19-3.43-1.53-4.61c-0.67-2.27-1.19-4.59-1.61-6.93
				c-0.99-5.43-1.42-10.96-1.58-16.48c-0.72-25.18,4.02-50.66,9.69-76.42c4.57-20.79,10.08-41.39,16.29-61.75
				c0.93-3.04,2.71-6.58,3.03-9.76c0.93-9.08-7.05-6.82-12.76-3.66c-9.27,5.13-18.2,14.06-22.71,23.71
				c-1.38,2.95-2.33,6.41-3.4,9.51c2-5.81,0.34-1.01-0.19,0.34c-0.56,1.42-1.15,2.83-1.75,4.24c-1.41,3.32-2.89,6.61-4.41,9.88
				c-3.82,8.21-7.9,16.3-12.15,24.3c-1.21,2.27-2.43,4.53-3.66,6.79c-0.49,0.9-4.58,8.18-2.11,3.85c-2.77,4.87-5.6,9.71-8.5,14.51
				c-6.09,10.08-12.47,19.99-19.19,29.66c-1.71,2.46-3.45,4.88-5.18,7.32c-3.39,4.78,2.14-2.72-0.13,0.19
				c-0.91,1.18-1.78,2.39-2.68,3.57c-3.57,4.69-7.23,9.3-11.02,13.82c-1.86,2.21-3.77,4.38-5.66,6.56c-3.79,4.37,3.11-3.15,0.46-0.5
				c-0.99,0.99-1.92,2.06-2.89,3.07c-1.91,2-3.85,3.96-5.82,5.89c-0.78,0.76-1.56,1.51-2.35,2.25c-3.32,3.14-2.33,0.82,0.21-0.15
				c-1.97,0.76-4.21,3.63-5.93,5.02c-0.98,0.79-2.04,1.51-2.98,2.34c-2.47,2.2,4.88-3.21,0.68-0.5c-2.01,1.3-3.98,2.66-5.99,3.97
				c-0.78,0.51-1.6,0.96-2.4,1.44c4.65-2.81,0.96-0.53-0.22,0.02c-1.99,0.93-3.97,1.85-5.98,2.72c-3.82,1.65,2.34-0.7-0.13,0.05
				c-0.99,0.3-1.97,0.63-2.98,0.9c-4.23,1.15-7.59,1.64-9.67,1.6c-3.8-0.08-7.57-0.39-11.24-1.43c-3.4-0.96-2.45-0.38-5.81-2.72
				c-10.28-7.15-12.47-17.6-13.66-29.86c-1.65-17.07,0.23-29.74,3.35-46.62c3.27-17.64,7.9-35.02,13.26-52.13
				c2.44-7.77,5.07-15.47,7.8-23.14c-1.66,4.65,0.4-1.06,0.81-2.15c0.61-1.62,1.23-3.24,1.85-4.85c1.13-2.92,2.3-5.84,3.5-8.73
				c1.8-4.33,3.72-8.59,5.74-12.83c2.63-5.54-2.12,3.25-0.42,0.64c0.1-0.15,0.2-0.3,0.3-0.45c-3.97,5.94-26.67,31.04-31.03,20.23
				c-0.09-0.23-1.08-3.24-0.93-1.6c-0.44-4.72,0.12-1.92-0.43,0.4c-1.02,4.25-2.41,8.46-3.89,12.57
				c-4.62,12.86-11.15,26.08-18.05,38.24c-6.21,10.95-15.92,25.75-24.33,37.59c-4.17,5.87-6.65,9.21-12.16,16.33
				c-4.8,6.19-9.69,12.3-14.68,18.33c-4.79,5.79-9.65,11.51-14.6,17.16c-2.36,2.7-4.76,5.37-7.14,8.06
				c-0.74,0.84-3.34,3.67,0.27-0.28c-1.37,1.5-2.75,3-4.13,4.5c-4.3,4.66-8.66,9.27-13.07,13.82c-2,2.07-4.02,4.13-6.04,6.17
				c-4.32,4.36-1.29,1.24,1.62-1.26c-4.84,4.14,5.31-3.43-0.46,0.36c-2.3,1.51-4.96,3.87-7.57,4.73c6.25-2.08,0.85-0.5-0.94,0.42
				c-1.66,0.85-3.34,1.66-5.03,2.43c-1.76,0.8-3.57,1.48-5.34,2.25c-0.82,0.36-2.97,0.93,0.73-0.25c-1.13,0.36-2.25,0.76-3.38,1.1
				c-13.9,4.18-28.7,4.23-38.85-9.67c-6.97-9.54-8.68-21.94-9.85-33.38c-1.43-13.96-2.02-28.17-0.88-42.17
				c0.9-10.99,2.93-21.98,6.09-32.54c0.45-1.5,0.93-2.98,1.42-4.47c0.17-0.53,1.07-3.03,0.05-0.26c0.85-2.31,1.79-4.6,2.78-6.85
				c0.96-2.18,1.98-4.33,3.06-6.44c0.42-0.83,0.88-1.64,1.29-2.47c1.95-3.95-2.13,3.15,0.12-0.17c1.24-1.83,2.37-3.74,3.58-5.59
				c3.53-5.4-3.03,3.56,0.98-1.35c1.05-1.28,3.53-3.32,3.99-4.79c-0.04,0.14-4.75,4.94-2,2.22c0.85-0.85,1.66-1.74,2.52-2.59
				c0.73-0.73,2.03-1.6,2.56-2.47c-0.03,0.05-5.27,4.54-2.33,2.12c1.48-1.22,2.9-2.49,4.4-3.68c0.59-0.47,1.2-0.91,1.78-1.39
				c3.4-2.79-4.94,3.33-1.27,0.95c1.52-0.99,2.99-2.06,4.53-3.04c0.19-0.12,4.46-2.88,4.55-2.77c0.1,0.13-4.83,2.55-1.39,0.8
				c0.76-0.39,1.51-0.81,2.27-1.2c2.93-1.51,5.92-2.91,8.96-4.2c1.45-0.61,2.91-1.18,4.37-1.77c4.29-1.72-3.25,0.98,1.06-0.38
				c2.69-0.85,5.36-1.74,8.08-2.49c7.75-2.14,15.5-3.2,23.42-4.37c1.64-0.24-4.01,0.28-0.42,0.05c0.3-0.02,0.59-0.03,0.89-0.04
				c10.42-0.26,19.99-9.7,26.19-17.3c1.72-2.11,13.89-20.26,4.52-20.18c-64.28,0.55-117.02,49.73-143.64,105.19
				c-2.56,5.34-4.81,10.82-6.72,16.42c2.55-4.5,5.09-8.99,7.64-13.49c-30.67,34.38-61.34,68.76-92.01,103.14
				c-4.75,5.32-9.49,10.64-14.24,15.96c-2.99,3.35-13.47,17.85-4.52,20.18C349.65,427.03,362.15,412.73,366.9,407.41L366.9,407.41z"
				/>
		</g>
	</g>
	<g>
		<g>
			<path d="M1232.36,35.52c-12.89,24.26-25.78,48.53-38.67,72.79c-1.86,3.49-3.71,6.98-5.57,10.48c-1.36,2.56-3.85,10.46,1.65,10.74
				c26.02,1.3,52.04,2.6,78.07,3.9c6.22,0.31,12.26-4.21,16.79-7.9c6.37-5.18,11.8-11.53,15.56-18.84
				c12.91-25.06,25.82-50.11,38.73-75.17c1.84-3.57,3.68-7.13,5.51-10.7c1.25-2.42,3.92-10.65-1.65-10.74
				c-26.02-0.43-52.04-0.87-78.07-1.3c-10.15-0.17-20.36,9.89-26.19,17.3c-1.75,2.23-13.94,20.02-4.52,20.18
				c26.02,0.43,52.04,0.87,78.07,1.3c-0.55-3.58-1.1-7.16-1.65-10.74c-12.91,25.06-25.82,50.11-38.72,75.17
				c-1.84,3.57-3.68,7.13-5.51,10.7c10.78-8.91,21.57-17.83,32.35-26.74c-26.02-1.3-52.04-2.6-78.07-3.9
				c0.55,3.58,1.1,7.16,1.65,10.74c12.89-24.26,25.78-48.53,38.67-72.79c1.86-3.49,3.71-6.98,5.57-10.48
				c1.14-2.15,2.97-7.38,0.68-9.68c-2.34-2.34-7.46-0.4-9.68,0.68C1246.75,15.67,1237.84,25.2,1232.36,35.52z"/>
		</g>
	</g>
</g>
</svg>
